<svg width="81" height="78" viewBox="0 0 81 78" fill="none" xmlns="http://www.w3.org/2000/svg">
<path d="M34.3313 2.16699C45.8362 11.2832 39.1074 25.2862 39.1653 25.3848C39.1653 25.3848 41.4838 24.945 45.175 25.0557C48.8663 25.1664 51.0587 23.8335 52.0969 23.6113C52.0969 24.2779 49.328 28.9419 41.5999 28.2754C41.612 28.2834 44.8445 30.4094 49.2493 28.2383C51.5682 31.943 56.0639 42.2897 47.1604 48.5342C38.9134 54.3164 37.4132 58.6632 36.3674 61.6699C37.5391 58.5001 40.7037 55.9344 43.4524 54.042C45.3274 52.7491 47.6485 51.8915 49.3909 50.4678C54.8024 46.0422 53.5559 38.6191 53.5559 38.6191C53.5598 38.6298 54.1441 40.2279 54.2747 41.0107C54.905 44.8246 55.7142 47.9531 52.9319 51.6377C50.7296 54.5545 47.6068 56.2207 44.8674 58.5234C42.1281 60.8262 39.2987 63.4466 37.8333 66.7246C37.3649 67.7734 37.0832 68.9325 37.1545 70.0791C37.1602 70.1716 37.2316 70.5732 37.3235 71.0547C38.2772 71.1489 39.2418 71.2001 40.2151 71.2002C41.5927 71.1999 42.969 71.1038 44.3323 70.9131C59.9121 68.7371 70.7496 54.7638 68.4895 39.7637C67.635 34.0544 64.9349 28.7488 60.7717 24.6006C56.6087 20.4526 51.1942 17.6727 45.2971 16.6543C45.1289 16.6283 44.9671 16.57 44.8225 16.4834C44.6778 16.3967 44.5529 16.2823 44.4543 16.1484C44.3558 16.0145 44.2853 15.8633 44.2483 15.7031C44.2113 15.543 44.2083 15.3773 44.2385 15.2158C44.2688 15.0543 44.3323 14.9003 44.425 14.7627C44.5178 14.6251 44.6377 14.5064 44.7786 14.4141C44.9195 14.3217 45.0783 14.2572 45.2454 14.2246C45.4122 14.192 45.5843 14.1916 45.7512 14.2236C52.1716 15.3482 58.0643 18.3833 62.5989 22.9014C67.1333 27.4194 70.0815 33.1932 71.0286 39.4092C71.6286 43.3608 71.3887 47.3893 70.3235 51.249C68.2363 58.7937 63.2092 65.2735 56.2874 69.3418C51.4558 72.1687 45.9109 73.6652 40.2571 73.667C37.6048 73.666 34.9631 73.3333 32.3997 72.6777C24.564 70.6694 17.8337 65.83 13.6086 59.167C11.448 55.7583 10.0299 51.9624 9.4397 48.0098C8.31839 40.5654 10.161 33.0202 14.6311 26.7637C19.0911 20.5202 25.7308 16.1644 33.3254 14.499C33.657 14.4263 34.0053 14.483 34.2932 14.6572C34.5812 14.8316 34.786 15.1094 34.8616 15.4287C34.937 15.7479 34.8776 16.0832 34.6965 16.3604C34.5155 16.6375 34.2273 16.8335 33.8958 16.9062C19.4835 20.0664 9.85622 33.5728 11.9768 47.6582C13.7307 59.2936 22.8637 68.1812 34.1467 70.5645C31.2568 67.7448 29.8571 63.883 30.5168 59.8037C30.6957 58.7652 30.993 57.7485 31.4026 56.7725C31.6393 56.189 31.9159 54.9433 32.4983 54.6104C29.4929 56.3208 28.9415 61.4168 28.9358 61.4707C29.0253 60.905 28.5351 59.9094 28.4973 59.2842C28.4557 58.5982 28.4921 57.9099 28.6057 57.2314C28.8097 56.0218 29.2153 54.8206 29.7063 53.6934C30.7451 51.2926 32.3403 49.1523 34.3704 47.4365C35.8249 46.2188 37.3486 45.0768 38.7678 43.8203C39.7506 42.9501 41.1124 41.8538 41.4397 40.54C42.0507 38.0893 41.0517 36.6701 40.2375 36.4785C41.6626 40.8942 36.3686 42.5516 34.4338 42.748C32.4993 42.9444 27.4067 46.3767 25.5745 46.4736C23.7425 46.5705 21.6056 45.8808 21.1975 45.0996C20.7896 44.3182 20.9941 43.7297 22.4192 41.8672C23.8444 40.0046 26.3919 36.1821 27.3655 33.7314C28.3391 31.2808 31.1555 28.8521 32.9045 26.4766C42.5766 13.3433 34.7404 2.56177 34.3313 2.16699ZM34.0051 32.5488C34.0051 32.5488 30.9497 33.8104 29.7864 34.7744C28.6231 35.7384 26.5295 40.1821 27.3645 38.9863C27.6834 38.5266 28.6181 37.069 29.303 36.5615C29.9879 36.0544 31.5252 36.5472 32.6321 35.2793C33.3079 34.4869 33.7791 33.5508 34.0051 32.5488Z" fill="url(#paint0_linear_24_3354)"/>
<defs>
<linearGradient id="paint0_linear_24_3354" x1="63.7263" y1="73.667" x2="2.18054" y2="53.3407" gradientUnits="userSpaceOnUse">
<stop stop-color="#5232DB"/>
<stop offset="1" stop-color="#037ED6"/>
</linearGradient>
</defs>
</svg>
