<svg width="160" height="46" viewBox="0 0 160 46" fill="none" xmlns="http://www.w3.org/2000/svg">
<g clip-path="url(#clip0_24_3504)">
<path d="M15.8792 0C23.1224 5.86299 18.8895 14.8681 18.9231 14.9375C18.9231 14.9375 20.3835 14.6544 22.7083 14.7256C25.033 14.7968 26.4138 13.9398 27.0676 13.7969C27.0675 14.2259 25.3234 17.2267 20.4563 16.7979C20.4736 16.8094 22.5063 18.1667 25.2737 16.7734C26.7342 19.157 29.5661 25.8137 23.9583 29.8311C18.7643 33.5511 17.82 36.3479 17.1614 38.2822C17.8993 36.2429 19.8922 34.5915 21.6233 33.374C22.8042 32.5423 24.2662 31.9912 25.3635 31.0752C28.7596 28.2382 27.9921 23.4863 27.9866 23.4521C27.9928 23.4695 28.3579 24.4902 28.4397 24.9912C28.8366 27.4446 29.3459 29.4569 27.594 31.8271C26.207 33.7038 24.2392 34.7762 22.5139 36.2578C20.7887 37.7393 19.0071 39.4253 18.0842 41.5342C17.7894 42.2088 17.6126 42.9539 17.6575 43.6914C17.661 43.7508 17.7051 44.0096 17.7629 44.3193C18.3638 44.38 18.972 44.413 19.5852 44.4131C20.4527 44.4129 21.3195 44.3512 22.178 44.2285C31.9899 42.8284 38.8151 33.8387 37.3918 24.1885C36.8537 20.5156 35.1533 17.1023 32.5315 14.4336C29.9095 11.7648 26.4986 9.97543 22.7844 9.32031C22.6788 9.30354 22.5775 9.2665 22.4866 9.21094C22.3954 9.15514 22.3162 9.08126 22.2542 8.99512C22.1922 8.90905 22.1476 8.81193 22.1243 8.70898C22.101 8.60601 22.0994 8.49934 22.1184 8.39551C22.1375 8.29161 22.1771 8.19207 22.2356 8.10352C22.2939 8.01515 22.3697 7.93922 22.4583 7.87988C22.5469 7.82053 22.6471 7.77883 22.7522 7.75781C22.8574 7.73682 22.9663 7.73615 23.0715 7.75684C27.1151 8.48032 30.826 10.4332 33.6819 13.3398C36.5377 16.2465 38.395 19.9609 38.9915 23.96C39.3693 26.5022 39.2179 29.094 38.5471 31.5771C37.2326 36.4312 34.0659 40.6004 29.7063 43.2178C26.6634 45.0364 23.1713 45.9989 19.6106 46C17.9402 45.9994 16.2768 45.7851 14.6624 45.3633C9.72745 44.0712 5.48833 40.9586 2.82739 36.6719C1.46653 34.4788 0.573118 32.0363 0.201416 29.4932C-0.504752 24.7039 0.656721 19.8503 3.47192 15.8252C6.28086 11.8083 10.4621 9.00502 15.2454 7.93359C15.4542 7.8868 15.6734 7.92404 15.8547 8.03613C16.0361 8.1483 16.1646 8.3268 16.2122 8.53223C16.2597 8.73763 16.2227 8.9535 16.1086 9.13184C15.9946 9.30995 15.8134 9.43658 15.6047 9.4834C6.52774 11.5165 0.464309 20.2056 1.80005 29.2676C2.90467 36.7534 8.65671 42.4707 15.7629 44.0039C13.9428 42.1898 13.0612 39.7056 13.4768 37.0811C13.5895 36.4129 13.7764 35.7588 14.0344 35.1309C14.1835 34.7554 14.3581 33.9544 14.7249 33.7402C12.8219 34.8465 12.4807 38.1543 12.4807 38.1543C12.5373 37.7904 12.2281 37.1494 12.2043 36.7471C12.1781 36.3057 12.2012 35.8623 12.2727 35.4258C12.4012 34.6477 12.6569 33.8754 12.9661 33.1504C13.6203 31.6058 14.625 30.2289 15.9036 29.125C16.8196 28.3416 17.7792 27.6062 18.6731 26.7979C19.2921 26.238 20.1496 25.5326 20.3557 24.6875C20.7403 23.1113 20.1115 22.1988 19.5989 22.0752C20.496 24.9157 17.1622 25.9819 15.9436 26.1084C14.7252 26.2347 11.5174 28.4425 10.3635 28.5049C9.20971 28.5671 7.86355 28.1237 7.60669 27.6211C7.34992 27.1185 7.47893 26.7399 8.37622 25.542C9.27374 24.3438 10.8782 21.8843 11.4915 20.3076C12.1046 18.7311 13.8781 17.1688 14.9797 15.6406C21.071 7.19179 16.1375 0.255003 15.8792 0ZM15.6731 19.5459C15.6731 19.5459 13.7497 20.3584 13.0168 20.9785C12.2844 21.5986 10.9655 24.456 11.4905 23.6885C11.6913 23.3927 12.2808 22.4555 12.7122 22.1289C13.1435 21.8024 14.1116 22.1189 14.8088 21.3027C15.2345 20.7929 15.5308 20.1905 15.6731 19.5459Z" fill="url(#paint0_linear_24_3504)"/>
<path d="M67.3004 28.2267C67.4568 29.918 68.7596 30.533 70.3489 30.533C71.4692 30.533 73.4234 30.3024 73.3454 28.7906C73.2674 27.2527 71.1047 27.0733 68.9416 26.5865C66.753 26.1254 64.6167 25.3569 64.6167 22.6652C64.6167 19.7694 67.7953 18.8717 70.2449 18.8717C73.0065 18.8717 75.5081 19.9991 75.873 22.9461H72.772C72.512 21.5621 71.3392 21.1781 70.0364 21.1781C69.1765 21.1781 67.5868 21.3831 67.5868 22.5361C67.5868 23.9712 69.7755 24.1762 71.9642 24.663C74.1273 25.1501 76.3159 25.9186 76.3159 28.5323C76.3159 31.6864 73.0849 32.8372 70.2969 32.8372C66.9094 32.8372 64.3823 31.3509 64.3298 28.2245L67.3004 28.2267Z" fill="#2C134C"/>
<path d="M85.1872 19.2634H82.2283V15.7573H79.3046V19.2634H76.8806V21.5775H79.3046V32.5516H82.2283V21.5775H85.1872V19.2634Z" fill="#2C134C"/>
<path d="M104.775 32.6215V25.7498C104.776 24.6509 105.221 23.5973 106.011 22.8202C106.801 22.0431 107.872 21.606 108.99 21.6047H109.132C110.25 21.606 111.321 22.0431 112.111 22.8202C112.902 23.5973 113.346 24.6509 113.347 25.7498V32.6215H116.263V25.7498C116.263 21.8929 113.056 18.7375 109.132 18.7375H108.99C105.069 18.7375 101.86 21.8916 101.86 25.7498V32.6215H104.775Z" fill="#2C134C"/>
<path d="M144.07 19.0648H140.885V32.7618H144.07V19.0648Z" fill="#2C134C"/>
<path d="M142.478 16.5172C143.482 16.5172 144.296 15.7663 144.296 14.84C144.296 13.9137 143.482 13.1628 142.478 13.1628C141.474 13.1628 140.66 13.9137 140.66 14.84C140.66 15.7663 141.474 16.5172 142.478 16.5172Z" fill="#2C134C"/>
<path d="M137.011 32.645C138.169 32.645 139.108 31.779 139.108 30.7107C139.108 29.6425 138.169 28.7765 137.011 28.7765C135.853 28.7765 134.915 29.6425 134.915 30.7107C134.915 31.779 135.853 32.645 137.011 32.645Z" fill="#2C134C"/>
<path d="M152.87 21.6047C153.704 21.6047 154.519 21.8478 155.212 22.3033C155.905 22.7588 156.445 23.4062 156.764 24.1636C157.083 24.921 157.166 25.7544 157.004 26.5585C156.841 27.3626 156.44 28.1012 155.85 28.6809C155.261 29.2606 154.51 29.6554 153.692 29.8153C152.875 29.9752 152.027 29.8931 151.257 29.5794C150.487 29.2657 149.829 28.7344 149.366 28.0527C148.902 27.3711 148.655 26.5697 148.655 25.7498C148.656 24.6509 149.101 23.5973 149.891 22.8202C150.681 22.0431 151.753 21.606 152.87 21.6047ZM152.87 18.7375C151.46 18.7375 150.081 19.1487 148.909 19.9193C147.736 20.6898 146.822 21.785 146.283 23.0663C145.743 24.3477 145.602 25.7576 145.877 27.1179C146.152 28.4781 146.831 29.7276 147.828 30.7083C148.825 31.689 150.096 32.3569 151.479 32.6275C152.862 32.898 154.296 32.7592 155.599 32.2284C156.902 31.6977 158.015 30.7989 158.799 29.6457C159.582 28.4925 160 27.1368 160 25.7498C160 23.89 159.249 22.1064 157.912 20.7914C156.575 19.4763 154.761 18.7375 152.87 18.7375Z" fill="#2C134C"/>
<path fill-rule="evenodd" clip-rule="evenodd" d="M51.3894 19.9943C52.5619 19.2238 53.9405 18.8125 55.3508 18.8125C57.2418 18.8125 59.0554 19.5513 60.3926 20.8664C61.7298 22.1814 62.481 23.9651 62.481 25.8249C62.481 27.2118 62.0629 28.5675 61.2794 29.7207C60.4959 30.8739 59.3823 31.7727 58.0794 32.3034C56.7765 32.8342 55.3428 32.973 53.9597 32.7025C52.5766 32.4319 51.3061 31.764 50.3089 30.7833C49.3117 29.8026 48.6326 28.5532 48.3575 27.1929C48.0823 25.8326 48.2235 24.4227 48.7632 23.1413C49.3029 21.86 50.2168 20.7648 51.3894 19.9943ZM57.5612 22.2955C56.8974 21.8935 56.1323 21.6798 55.3508 21.6798C54.2333 21.681 53.162 22.1181 52.3718 22.8952C51.5817 23.6723 51.1372 24.7259 51.1359 25.8249C51.1359 26.6447 51.3831 27.4461 51.8463 28.1278C52.3094 28.8094 52.9677 29.3407 53.7378 29.6544C54.508 29.9682 55.3554 30.0502 56.173 29.8903C56.9906 29.7304 57.7416 29.3356 58.3311 28.7559C58.9205 28.1762 59.322 27.4376 59.4846 26.6335C59.5417 26.3513 59.5684 26.0655 59.5653 25.7806L59.5678 20.5569L57.5612 22.2955Z" fill="#2C134C"/>
<path d="M125.589 18.7375C123.763 18.7373 122.007 19.426 120.682 20.6616C119.357 21.8972 118.564 23.5856 118.468 25.3787C118.371 27.1719 118.978 28.9331 120.162 30.2995C121.347 31.6659 123.019 32.5333 124.835 32.723C125.085 32.7488 125.337 32.7618 125.589 32.7618H132.719V25.7498C132.719 24.829 132.534 23.9171 132.176 23.0664C131.818 22.2156 131.293 21.4425 130.63 20.7914C129.968 20.1402 129.182 19.6237 128.317 19.2713C127.452 18.9189 126.525 18.7375 125.589 18.7375ZM129.86 25.9131V32.3645L127.91 30.1439H125.652L125.657 30.1383C125.62 30.1383 125.584 30.1439 125.546 30.1439C123.166 30.1439 121.231 28.1623 121.231 25.7264C121.231 23.2905 123.166 21.3085 125.545 21.3085C127.924 21.3085 129.86 23.2905 129.86 25.7264C129.86 25.7929 129.853 25.8572 129.85 25.9229L129.86 25.9131Z" fill="#2C134C"/>
<path d="M92.3175 18.7375C90.4916 18.7373 88.7353 19.426 87.4104 20.6616C86.0856 21.8972 85.2932 23.5856 85.1965 25.3787C85.0999 27.1719 85.7064 28.9331 86.891 30.2995C88.0757 31.6659 89.7482 32.5333 91.5638 32.723C91.8142 32.7488 92.0658 32.7618 92.3175 32.7618H99.4474V25.7498C99.4474 24.829 99.263 23.9171 98.9048 23.0664C98.5465 22.2156 98.0213 21.4425 97.3592 20.7914C96.6972 20.1402 95.9111 19.6237 95.0461 19.2713C94.181 18.9189 93.2538 18.7375 92.3175 18.7375ZM96.5887 25.9131V32.3645L94.6384 30.1439H92.3803L92.386 30.1383C92.3487 30.1383 92.3123 30.1439 92.2746 30.1439C89.8952 30.1439 87.9597 28.1623 87.9597 25.7264C87.9597 23.2905 89.8952 21.3085 92.2746 21.3085C94.654 21.3085 96.5895 23.2905 96.5895 25.7264C96.5895 25.7929 96.5826 25.8572 96.5796 25.9229L96.5887 25.9131Z" fill="#2C134C"/>
</g>
<defs>
<linearGradient id="paint0_linear_24_3504" x1="27.4857" y1="9.88833" x2="8.45346" y2="50.493" gradientUnits="userSpaceOnUse">
<stop offset="0.0629435" stop-color="#3E37CC"/>
<stop offset="0.51632" stop-color="#2A5BCC"/>
<stop offset="1" stop-color="#1380CD"/>
</linearGradient>
<clipPath id="clip0_24_3504">
<rect width="160" height="46" fill="white"/>
</clipPath>
</defs>
</svg>
