<svg width="112" height="20" viewBox="0 0 112 20" fill="none" xmlns="http://www.w3.org/2000/svg">
<path d="M19.3004 15.2267C19.4568 16.918 20.7596 17.533 22.3489 17.533C23.4692 17.533 25.4234 17.3024 25.3454 15.7906C25.2674 14.2527 23.1047 14.0733 20.9416 13.5865C18.753 13.1254 16.6167 12.3569 16.6167 9.66521C16.6167 6.76939 19.7953 5.87175 22.2449 5.87175C25.0065 5.87175 27.5081 6.99913 27.873 9.94609H24.772C24.512 8.56212 23.3392 8.17809 22.0364 8.17809C21.1765 8.17809 19.5868 8.3831 19.5868 9.53606C19.5868 10.9712 21.7755 11.1762 23.9642 11.663C26.1273 12.1501 28.3159 12.9186 28.3159 15.5323C28.3159 18.6864 25.0849 19.8372 22.2969 19.8372C18.9094 19.8372 16.3823 18.3509 16.3298 15.2245L19.3004 15.2267Z" fill="#2C134C"/>
<path d="M37.1872 6.26345H34.2283V2.75727H31.3046V6.26345H28.8806V8.57746H31.3046V19.5516H34.2283V8.57746H37.1872V6.26345Z" fill="#2C134C"/>
<path d="M56.7751 19.6215V12.7498C56.7764 11.6509 57.2208 10.5973 58.011 9.82018C58.8011 9.04309 59.8725 8.60598 60.9899 8.60474H61.1325C62.25 8.60598 63.3213 9.04309 64.1114 9.82018C64.9016 10.5973 65.3461 11.6509 65.3473 12.7498V19.6215H68.2628V12.7498C68.2628 8.89287 65.0556 5.73748 61.1325 5.73748H60.9899C57.0685 5.73748 53.8596 8.89159 53.8596 12.7498V19.6215H56.7751Z" fill="#2C134C"/>
<path d="M96.0701 6.06482H92.8855V19.7618H96.0701V6.06482Z" fill="#2C134C"/>
<path d="M94.4778 3.51723C95.4819 3.51723 96.2959 2.76632 96.2959 1.84002C96.2959 0.913712 95.4819 0.162796 94.4778 0.162796C93.4737 0.162796 92.6597 0.913712 92.6597 1.84002C92.6597 2.76632 93.4737 3.51723 94.4778 3.51723Z" fill="#2C134C"/>
<path d="M89.0113 19.645C90.1694 19.645 91.1081 18.779 91.1081 17.7107C91.1081 16.6425 90.1694 15.7765 89.0113 15.7765C87.8533 15.7765 86.9146 16.6425 86.9146 17.7107C86.9146 18.779 87.8533 19.645 89.0113 19.645Z" fill="#2C134C"/>
<path d="M104.87 8.60474C105.704 8.60474 106.519 8.84784 107.212 9.30331C107.905 9.75878 108.445 10.4062 108.764 11.1636C109.083 11.921 109.166 12.7544 109.004 13.5585C108.841 14.3626 108.44 15.1012 107.85 15.6809C107.261 16.2606 106.51 16.6554 105.692 16.8153C104.875 16.9752 104.027 16.8931 103.257 16.5794C102.487 16.2657 101.829 15.7344 101.366 15.0527C100.902 14.3711 100.655 13.5697 100.655 12.7498C100.656 11.6509 101.101 10.5973 101.891 9.82018C102.681 9.04309 103.753 8.60598 104.87 8.60474ZM104.87 5.73748C103.46 5.73748 102.081 6.14875 100.909 6.91928C99.7361 7.6898 98.8222 8.78498 98.2825 10.0663C97.7428 11.3477 97.6016 12.7576 97.8768 14.1179C98.1519 15.4781 98.831 16.7276 99.8282 17.7083C100.825 18.689 102.096 19.3569 103.479 19.6275C104.862 19.898 106.296 19.7592 107.599 19.2284C108.902 18.6977 110.015 17.7989 110.799 16.6457C111.582 15.4925 112 14.1368 112 12.7498C112 10.89 111.249 9.10642 109.912 7.79135C108.575 6.47628 106.761 5.73748 104.87 5.73748Z" fill="#2C134C"/>
<path fill-rule="evenodd" clip-rule="evenodd" d="M3.38938 6.9943C4.56195 6.22377 5.94051 5.8125 7.35075 5.8125C9.24182 5.8125 11.0554 6.5513 12.3926 7.86637C13.7298 9.18144 14.481 10.9651 14.481 12.8249C14.481 14.2118 14.0629 15.5675 13.2794 16.7207C12.4959 17.8739 11.3823 18.7727 10.0794 19.3034C8.77651 19.8342 7.34285 19.973 5.9597 19.7025C4.57656 19.4319 3.30607 18.764 2.30888 17.7833C1.31169 16.8026 0.632594 15.5532 0.35747 14.1929C0.0823456 12.8326 0.223546 11.4227 0.763221 10.1413C1.3029 8.86 2.2168 7.76482 3.38938 6.9943ZM9.56117 9.29552C8.89744 8.89346 8.13232 8.67976 7.35075 8.67976C6.2333 8.681 5.16198 9.11811 4.37183 9.8952C3.58167 10.6723 3.1372 11.7259 3.13594 12.8249C3.13594 13.6447 3.38314 14.4461 3.84627 15.1278C4.30939 15.8094 4.96766 16.3407 5.73782 16.6544C6.50798 16.9682 7.35543 17.0502 8.17303 16.8903C8.99062 16.7304 9.74163 16.3356 10.3311 15.7559C10.9205 15.1762 11.322 14.4376 11.4846 13.6335C11.5417 13.3513 11.5684 13.0655 11.5653 12.7806L11.5678 7.55694L9.56117 9.29552Z" fill="#2C134C"/>
<path d="M77.5887 5.73748C75.7629 5.73731 74.0065 6.426 72.6817 7.6616C71.3568 8.89721 70.5644 10.5856 70.4678 12.3787C70.3711 14.1719 70.9776 15.9331 72.1623 17.2995C73.3469 18.6659 75.0194 19.5333 76.8351 19.723C77.0854 19.7488 77.337 19.7618 77.5887 19.7618H84.7186V12.7498C84.7187 11.829 84.5343 10.9171 84.176 10.0664C83.8177 9.21558 83.2925 8.44254 82.6305 7.79138C81.9684 7.14022 81.1824 6.62368 80.3173 6.27127C79.4523 5.91886 78.5251 5.73748 77.5887 5.73748ZM81.8599 12.9131V19.3645L79.9096 17.1439H77.6516L77.6572 17.1383C77.6199 17.1383 77.5835 17.1439 77.5458 17.1439C75.1665 17.1439 73.2309 15.1623 73.2309 12.7264C73.2309 10.2905 75.1656 8.30851 77.545 8.30851C79.9243 8.30851 81.8599 10.2905 81.8599 12.7264C81.8599 12.7929 81.853 12.8572 81.8499 12.9229L81.8599 12.9131Z" fill="#2C134C"/>
<path d="M44.3175 5.73748C42.4916 5.73731 40.7353 6.426 39.4104 7.6616C38.0856 8.89721 37.2932 10.5856 37.1965 12.3787C37.0999 14.1719 37.7064 15.9331 38.891 17.2995C40.0757 18.6659 41.7482 19.5333 43.5638 19.723C43.8142 19.7488 44.0658 19.7618 44.3175 19.7618H51.4474V12.7498C51.4474 11.829 51.263 10.9171 50.9048 10.0664C50.5465 9.21558 50.0213 8.44254 49.3592 7.79138C48.6972 7.14022 47.9111 6.62368 47.0461 6.27127C46.181 5.91886 45.2538 5.73748 44.3175 5.73748ZM48.5887 12.9131V19.3645L46.6384 17.1439H44.3803L44.386 17.1383C44.3487 17.1383 44.3123 17.1439 44.2746 17.1439C41.8952 17.1439 39.9597 15.1623 39.9597 12.7264C39.9597 10.2905 41.8952 8.30851 44.2746 8.30851C46.654 8.30851 48.5895 10.2905 48.5895 12.7264C48.5895 12.7929 48.5826 12.8572 48.5796 12.9229L48.5887 12.9131Z" fill="#2C134C"/>
</svg>
