<svg width="24" height="24" viewBox="0 0 24 24" fill="none" xmlns="http://www.w3.org/2000/svg">
<path d="M21.707 20.293L20.293 21.707L16.293 17.707L17.707 16.293L21.707 20.293ZM11 3C15.4183 3 19 6.58172 19 11C19 13.2089 18.1038 15.2106 16.6572 16.6572C15.2106 18.1038 13.2089 19 11 19C6.58172 19 3 15.4183 3 11C3 6.58172 6.58172 3 11 3ZM11 5C7.68629 5 5 7.68629 5 11C5 14.3137 7.68629 17 11 17C12.6571 17 14.1553 16.3291 15.2422 15.2422C16.3291 14.1553 17 12.6571 17 11C17 7.68629 14.3137 5 11 5Z" fill="#8E8EAB"/>
</svg>
